<?xml version="1.0" encoding="utf-8"?>
<!-- Generator: Adobe Illustrator 25.4.1, SVG Export Plug-In . SVG Version: 6.00 Build 0)  -->
<svg version="1.1" id="Ebene_1" xmlns="http://www.w3.org/2000/svg" xmlns:xlink="http://www.w3.org/1999/xlink" x="0px" y="0px"
	 viewBox="0 0 392.8 94.4" style="enable-background:new 0 0 392.8 94.4;" xml:space="preserve">
<style type="text/css">
	.st0{fill:#F9B028;}
	.st1{fill:#717170;}
	.st2{fill:url(#SVGID_1_);}
	.st3{fill:#929292;}
	.st4{fill-rule:evenodd;clip-rule:evenodd;fill:#F9B028;}
	.st5{fill:url(#SVGID_00000026878703160460013460000012551561789334054018_);}
	.st6{fill:url(#SVGID_00000114773308562722911760000008121662927688693918_);}
	.st7{fill:url(#SVGID_00000111156192935324032580000001795723557337797275_);}
	.st8{fill:url(#SVGID_00000144321443147710746600000009326816108242130352_);}
	.st9{fill:url(#SVGID_00000080194630886727185510000015591477017674502315_);}
	.st10{fill:url(#SVGID_00000054267358764005255280000010518804617856652723_);}
	.st11{fill:url(#SVGID_00000034081377343422974320000008249604677510700964_);}
</style>
<g>
	<g>
		<g>
			<path class="st0" d="M263.3,42.5h-6.4v-5.7h20.6v5.7H271v19.8h-7.7V42.5z"/>
			<path class="st1" d="M271.2,62.5h-8.2V42.8h-6.4v-6.2h21.1v6.2h-6.5V62.5z M263.6,62h7.2V42.3h6.5V37h-20.1v5.2h6.4V62z"/>
		</g>
		<g>
			<path class="st0" d="M282.2,36.8h18.1v5.7h-10.4v4.1h8.9v5.7h-9v4.2h10.4v5.7h-18.1V36.8z"/>
			<path class="st1" d="M300.5,62.5H282v-26h18.6v6.2h-10.4v3.6h8.9v6.2h-9v3.7h10.4V62.5z M282.5,62H300v-5.2h-10.4v-4.7h9v-5.2
				h-8.9v-4.6H300V37h-17.6V62z"/>
		</g>
		<g>
			<path class="st0" d="M321.5,57.8h-8.8l-1.4,4.5h-7.1l9.4-25.5h8.5l8.6,25.5h-7.8L321.5,57.8z M319.7,52.5L317,44l-2.6,8.5H319.7z
				"/>
			<path class="st1" d="M331.1,62.5h-8.4l-1.4-4.5h-8.4l-1.4,4.5h-7.6l9.6-26h8.8l0.1,0.2L331.1,62.5z M323,62h7.3L322,37h-8.1
				l-9.2,25h6.5l1.4-4.5h9.1L323,62z M320.1,52.7h-6l3-9.5L320.1,52.7z M314.7,52.2h4.7l-2.4-7.4L314.7,52.2z"/>
		</g>
		<g>
			<path class="st0" d="M363.2,36.8v25.5h-7.7V46.6l-6.7,8.7l-6.7-8.8v15.7h-7.3V36.8h7.7l6.5,8.6l6.7-8.6H363.2z"/>
			<path class="st1" d="M363.5,62.5h-8.2V47.3l-6.5,8.4l-6.5-8.4v15.2h-7.8v-26h8.1l6.4,8.4l6.5-8.4h7.9V62.5z M355.8,62h7.2V37
				h-7.1l-6.8,8.8l-6.6-8.8h-7.4v25h6.8V45.8l7,9.1l7-9V62z"/>
		</g>
	</g>
	<g>
		<g>
			<linearGradient id="SVGID_1_" gradientUnits="userSpaceOnUse" x1="183.8611" y1="47.195" x2="250.612" y2="47.195">
				<stop  offset="3.683549e-03" style="stop-color:#A3A3A2"/>
				<stop  offset="0.5049" style="stop-color:#DADADA"/>
				<stop  offset="0.8582" style="stop-color:#A3A3A2"/>
				<stop  offset="1" style="stop-color:#A3A3A2"/>
			</linearGradient>
			<path class="st2" d="M217.2,80.6c-18.4,0-33.4-15-33.4-33.4s15-33.4,33.4-33.4s33.4,15,33.4,33.4S235.6,80.6,217.2,80.6z
				 M217.2,18.8c-15.6,0-28.4,12.7-28.4,28.4s12.7,28.4,28.4,28.4s28.4-12.7,28.4-28.4S232.9,18.8,217.2,18.8z"/>
			<path class="st1" d="M217.2,80.8c-18.5,0-33.6-15.1-33.6-33.6c0-18.5,15.1-33.6,33.6-33.6c18.5,0,33.6,15.1,33.6,33.6
				C250.9,65.7,235.8,80.8,217.2,80.8z M217.2,14.1c-18.3,0-33.1,14.9-33.1,33.1s14.9,33.1,33.1,33.1c18.3,0,33.1-14.9,33.1-33.1
				S235.5,14.1,217.2,14.1z M217.2,75.8c-15.8,0-28.6-12.8-28.6-28.6s12.8-28.6,28.6-28.6c15.8,0,28.6,12.8,28.6,28.6
				S233,75.8,217.2,75.8z M217.2,19.1c-15.5,0-28.1,12.6-28.1,28.1c0,15.5,12.6,28.1,28.1,28.1c15.5,0,28.1-12.6,28.1-28.1
				C245.4,31.7,232.7,19.1,217.2,19.1z"/>
		</g>
	</g>
	<g>
		<path class="st3" d="M372.8,30.8c0.6,0.4,1.1,0.9,1.5,1.5c0.4,0.6,0.6,1.4,0.6,2.1s-0.2,1.5-0.6,2.2c-0.4,0.7-0.9,1.2-1.5,1.5
			c-0.6,0.4-1.4,0.6-2.1,0.6s-1.5-0.2-2.1-0.6c-0.6-0.4-1.2-0.9-1.5-1.5c-0.4-0.6-0.6-1.4-0.6-2.1c0-0.8,0.2-1.5,0.6-2.1
			c0.4-0.6,0.9-1.2,1.5-1.5s1.4-0.6,2.2-0.6S372.2,30.4,372.8,30.8z M372.5,37.6c0.5-0.3,1-0.8,1.3-1.3c0.3-0.5,0.5-1.2,0.5-1.8
			s-0.2-1.3-0.5-1.8c-0.3-0.5-0.7-1-1.3-1.3c-0.5-0.3-1.1-0.5-1.8-0.5s-1.3,0.2-1.8,0.5c-0.5,0.3-1,0.7-1.3,1.3
			c-0.3,0.5-0.5,1.1-0.5,1.8s0.2,1.3,0.5,1.8c0.3,0.5,0.7,1,1.3,1.3c0.5,0.3,1.1,0.5,1.8,0.5S371.9,37.9,372.5,37.6z M372.6,34.6
			c-0.2,0.2-0.4,0.4-0.7,0.6l1.1,1.6h-1l-0.9-1.4h-0.1h-0.9v1.4h-1v-4.7h2c0.6,0,1.1,0.1,1.5,0.4c0.4,0.3,0.5,0.7,0.5,1.2
			C372.8,34.1,372.8,34.4,372.6,34.6z M370.8,34.6c0.3,0,0.6-0.1,0.8-0.2c0.2-0.1,0.3-0.4,0.3-0.6s-0.1-0.5-0.3-0.6
			c-0.2-0.1-0.4-0.2-0.8-0.2h-0.9v1.7H370.8z"/>
	</g>
	<g>
		<g>
			<path class="st4" d="M216.9,22.8l10.3,21.9c4.9,0.4,9.3,1.9,13.1,4.3c-2.6-0.6-5.3-0.9-8.1-0.9c-11.9,0-22.1,5.8-26.6,14.2h-7.3
				c2.7-8.9,11.1-15.7,21.6-17.3l-3-6.4l-2.9,6.2c-2.4,0.8-4.6,2-6.8,3.4c-1.3,0.9-2.5,1.9-3.7,3L216.9,22.8L216.9,22.8z
				 M210.5,58.2c1.9-1.9,4.1-3.5,6.3-4.7c4-2.2,8.5-3.4,12.9-3.7l5.8,12.4h-7.4l-3.8-8.1c-4.5,0.3-9,1.5-13.1,3.7
				C210.9,58,210.7,58.1,210.5,58.2L210.5,58.2z"/>
			<path class="st1" d="M235.9,62.5h-7.9l-3.8-8.1c-4.6,0.3-9,1.6-12.9,3.7c-0.2,0.1-0.4,0.2-0.6,0.3l-1.6,0.9l1.3-1.3
				c1.8-1.8,3.9-3.4,6.3-4.7c3.9-2.1,8.4-3.4,13-3.8l0.2,0L235.9,62.5z M228.3,62h6.8l-5.6-11.9c-4.5,0.4-8.9,1.6-12.6,3.7
				c-1.8,1-3.4,2.1-4.8,3.3c3.7-1.8,7.9-2.9,12.2-3.2l0.2,0L228.3,62z M205.8,62.5h-7.8l0.1-0.3c2.7-8.9,11.1-15.8,21.4-17.4
				l-2.6-5.6l-2.7,5.8l-0.1,0c-2.4,0.8-4.6,2-6.7,3.4c-1.3,0.9-2.5,1.9-3.6,3l-1,1l14.1-30.1l10.5,22.3c4.7,0.4,9.2,1.9,13.1,4.3
				l1.3,0.8l-1.5-0.3c-2.6-0.6-5.3-0.9-8-0.9c-11.4,0-21.8,5.5-26.4,14.1L205.8,62.5z M198.7,62h6.8c4.7-8.6,15.2-14.2,26.8-14.2
				c2.2,0,4.4,0.2,6.6,0.6c-3.5-1.9-7.5-3.1-11.7-3.5l-0.1,0l-10.1-21.6l-12.5,26.7c0.9-0.8,1.8-1.5,2.7-2.1
				c2.1-1.4,4.3-2.6,6.7-3.4l3.1-6.6l3.4,7.2l-0.3,0.1C209.8,46.8,201.5,53.3,198.7,62z"/>
		</g>
	</g>
	<g>
		<g>
			
				<linearGradient id="SVGID_00000173850108380644973920000011843403372834510493_" gradientUnits="userSpaceOnUse" x1="30.9265" y1="62.6357" x2="30.9265" y2="37.8188">
				<stop  offset="3.683549e-03" style="stop-color:#A3A3A2"/>
				<stop  offset="0.5049" style="stop-color:#DADADA"/>
				<stop  offset="0.8582" style="stop-color:#A3A3A2"/>
				<stop  offset="1" style="stop-color:#A3A3A2"/>
			</linearGradient>
			<path style="fill:url(#SVGID_00000173850108380644973920000011843403372834510493_);" d="M37.1,39.3c-2.1-1-4.5-1.5-7.2-1.5H18.1
				v24.8h11.7c2.7,0,5.1-0.5,7.2-1.5c2.1-1,3.7-2.5,4.9-4.3c1.2-1.9,1.7-4.1,1.7-6.6c0-2.5-0.6-4.7-1.7-6.6
				C40.8,41.8,39.2,40.4,37.1,39.3z M34.7,55.2c-1.3,1.2-3,1.8-5.1,1.8h-4.4V43.4h4.4c2.1,0,3.8,0.6,5.1,1.8c1.3,1.2,1.9,2.9,1.9,5
				C36.6,52.4,36,54,34.7,55.2z"/>
			<path class="st1" d="M29.9,62.9h-12V37.6h12c2.7,0,5.2,0.5,7.3,1.5l0,0c2.1,1,3.8,2.5,5,4.4c1.2,1.9,1.8,4.2,1.8,6.7
				s-0.6,4.8-1.8,6.7c-1.2,1.9-2.9,3.4-5,4.4C35.1,62.4,32.6,62.9,29.9,62.9z M18.4,62.4h11.5c2.7,0,5.1-0.5,7.1-1.5
				c2-1,3.7-2.4,4.8-4.2c1.1-1.8,1.7-4,1.7-6.4c0-2.4-0.6-4.6-1.7-6.4C40.6,42,39,40.6,37,39.6c-2.1-1-4.5-1.5-7.1-1.5H18.4V62.4z
				 M29.6,57.3h-4.7V43.2h4.7c2.2,0,4,0.6,5.3,1.9c1.3,1.2,2,3,2,5.2s-0.7,3.9-2,5.2l0,0C33.5,56.7,31.8,57.3,29.6,57.3z M25.4,56.8
				h4.2c2.1,0,3.7-0.6,5-1.7l0,0c1.2-1.2,1.9-2.8,1.9-4.8c0-2-0.6-3.7-1.9-4.8c-1.2-1.2-2.9-1.7-5-1.7h-4.2V56.8z"/>
		</g>
		<g>
			
				<linearGradient id="SVGID_00000138544200104666130840000014693192038273901696_" gradientUnits="userSpaceOnUse" x1="52.1621" y1="62.6357" x2="52.1621" y2="37.8188">
				<stop  offset="3.683549e-03" style="stop-color:#A3A3A2"/>
				<stop  offset="0.5049" style="stop-color:#DADADA"/>
				<stop  offset="0.8582" style="stop-color:#A3A3A2"/>
				<stop  offset="1" style="stop-color:#A3A3A2"/>
			</linearGradient>
			
				<rect x="48.7" y="37.8" style="fill:url(#SVGID_00000138544200104666130840000014693192038273901696_);" width="7" height="24.8"/>
			<path class="st1" d="M55.9,62.9h-7.5V37.6h7.5V62.9z M48.9,62.4h6.5V38.1h-6.5V62.4z"/>
		</g>
		<g>
			
				<linearGradient id="SVGID_00000068673203326546573460000004216881676866034839_" gradientUnits="userSpaceOnUse" x1="72.9724" y1="63.1318" x2="72.9724" y2="37.3227">
				<stop  offset="3.683549e-03" style="stop-color:#A3A3A2"/>
				<stop  offset="0.5049" style="stop-color:#DADADA"/>
				<stop  offset="0.8582" style="stop-color:#A3A3A2"/>
				<stop  offset="1" style="stop-color:#A3A3A2"/>
			</linearGradient>
			<path style="fill:url(#SVGID_00000068673203326546573460000004216881676866034839_);" d="M74.8,43.1c2.3,0,4.3,0.9,6,2.8l4.5-4
				c-1.2-1.5-2.8-2.6-4.6-3.4c-1.8-0.8-3.9-1.2-6.2-1.2c-2.6,0-5,0.5-7.1,1.6s-3.7,2.6-4.9,4.6c-1.2,2-1.8,4.2-1.8,6.7
				c0,2.5,0.6,4.7,1.8,6.7c1.2,2,2.8,3.5,4.9,4.6c2.1,1.1,4.4,1.6,7,1.6c1.8,0,3.7-0.3,5.5-0.8c1.8-0.5,3.5-1.3,4.9-2.3V49.7h-6.2
				v6.8c-1.2,0.5-2.4,0.8-3.8,0.8c-1.4,0-2.6-0.3-3.7-0.9c-1.1-0.6-1.9-1.4-2.5-2.5c-0.6-1.1-0.9-2.3-0.9-3.7c0-2.2,0.6-3.9,1.9-5.2
				C71,43.8,72.7,43.1,74.8,43.1z"/>
			<path class="st1" d="M74.3,63.4c-2.6,0-5-0.6-7.1-1.7c-2.1-1.1-3.8-2.7-5-4.7c-1.2-2-1.8-4.3-1.8-6.8s0.6-4.8,1.8-6.8
				c1.2-2,2.9-3.6,5-4.7c2.1-1.1,4.6-1.7,7.2-1.7c2.3,0,4.5,0.4,6.3,1.2c1.9,0.8,3.5,1.9,4.7,3.4l0.2,0.2l-4.8,4.4l-0.2-0.2
				c-1.6-1.8-3.6-2.7-5.8-2.7c-2,0-3.7,0.6-5,1.9c-1.2,1.2-1.9,2.9-1.9,5c0,1.3,0.3,2.5,0.9,3.5c0.6,1,1.4,1.8,2.4,2.4
				s2.2,0.9,3.5,0.9c1.2,0,2.4-0.2,3.5-0.7v-6.9H85v10.7l-0.1,0.1c-1.4,1-3.1,1.8-5,2.4C78.1,63.1,76.2,63.4,74.3,63.4z M74.5,37.6
				c-2.6,0-5,0.5-7,1.6c-2.1,1.1-3.7,2.6-4.8,4.5c-1.2,1.9-1.7,4.1-1.7,6.5s0.6,4.6,1.7,6.5c1.2,1.9,2.8,3.4,4.8,4.5
				c2,1.1,4.4,1.6,6.9,1.6c1.8,0,3.6-0.3,5.5-0.8c1.8-0.5,3.3-1.3,4.7-2.2v-9.9h-5.7v6.7l-0.1,0.1c-1.2,0.6-2.5,0.8-3.9,0.8
				c-1.4,0-2.7-0.3-3.8-0.9c-1.1-0.6-2-1.5-2.6-2.6c-0.6-1.1-0.9-2.4-0.9-3.8c0-2.2,0.7-4,2-5.3c1.3-1.3,3.1-2,5.3-2
				c2.3,0,4.4,0.9,6,2.7l4.1-3.7c-1.2-1.3-2.6-2.4-4.4-3.1C78.8,38,76.7,37.6,74.5,37.6z"/>
		</g>
		<g>
			
				<linearGradient id="SVGID_00000105401370327840051130000008621403452905851537_" gradientUnits="userSpaceOnUse" x1="93.9599" y1="62.6357" x2="93.9599" y2="37.8188">
				<stop  offset="3.683549e-03" style="stop-color:#A3A3A2"/>
				<stop  offset="0.5049" style="stop-color:#DADADA"/>
				<stop  offset="0.8582" style="stop-color:#A3A3A2"/>
				<stop  offset="1" style="stop-color:#A3A3A2"/>
			</linearGradient>
			
				<rect x="90.4" y="37.8" style="fill:url(#SVGID_00000105401370327840051130000008621403452905851537_);" width="7" height="24.8"/>
			<path class="st1" d="M97.7,62.9h-7.5V37.6h7.5V62.9z M90.7,62.4h6.5V38.1h-6.5V62.4z"/>
		</g>
		<g>
			
				<linearGradient id="SVGID_00000078035220582247543070000017578401844180143772_" gradientUnits="userSpaceOnUse" x1="112.4833" y1="62.6357" x2="112.4833" y2="37.8188">
				<stop  offset="3.683549e-03" style="stop-color:#A3A3A2"/>
				<stop  offset="0.5049" style="stop-color:#DADADA"/>
				<stop  offset="0.8582" style="stop-color:#A3A3A2"/>
				<stop  offset="1" style="stop-color:#A3A3A2"/>
			</linearGradient>
			<polygon style="fill:url(#SVGID_00000078035220582247543070000017578401844180143772_);" points="123.6,37.8 101.4,37.8 
				101.4,43.4 109,43.4 109,62.6 116,62.6 116,43.4 123.6,43.4 			"/>
			<path class="st1" d="M116.3,62.9h-7.5V43.6h-7.6v-6.1h22.7v6.1h-7.6V62.9z M109.2,62.4h6.5V43.1h7.6v-5.1h-21.7v5.1h7.6V62.4z"/>
		</g>
		<g>
			
				<linearGradient id="SVGID_00000145775612145626625470000003392231305508296615_" gradientUnits="userSpaceOnUse" x1="137.6728" y1="62.6357" x2="137.6728" y2="37.8188">
				<stop  offset="3.683549e-03" style="stop-color:#A3A3A2"/>
				<stop  offset="0.5049" style="stop-color:#DADADA"/>
				<stop  offset="0.8582" style="stop-color:#A3A3A2"/>
				<stop  offset="1" style="stop-color:#A3A3A2"/>
			</linearGradient>
			<path style="fill:url(#SVGID_00000145775612145626625470000003392231305508296615_);" d="M134.2,37.8l-11,24.8h7.2l1.9-4.8h10.5
				l1.9,4.8h7.3l-11-24.8H134.2z M134.4,52.6l3.2-7.9l3.2,7.9H134.4z"/>
			<path class="st1" d="M152.5,62.9h-7.9l-1.9-4.8h-10.2l-1.9,4.8h-7.7l0.2-0.4l11-25h7.2L152.5,62.9z M145,62.4h6.8l-10.8-24.3
				h-6.6l-10.7,24.3h6.6l1.9-4.8H143L145,62.4z M141.2,52.9H134l3.6-8.9L141.2,52.9z M134.8,52.4h5.6l-2.8-7L134.8,52.4z"/>
		</g>
		<g>
			
				<linearGradient id="SVGID_00000025430905926349224970000006413041514862747783_" gradientUnits="userSpaceOnUse" x1="164.7582" y1="62.6357" x2="164.7582" y2="37.8188">
				<stop  offset="3.683549e-03" style="stop-color:#A3A3A2"/>
				<stop  offset="0.5049" style="stop-color:#DADADA"/>
				<stop  offset="0.8582" style="stop-color:#A3A3A2"/>
				<stop  offset="1" style="stop-color:#A3A3A2"/>
			</linearGradient>
			<polygon style="fill:url(#SVGID_00000025430905926349224970000006413041514862747783_);" points="162.3,57.1 162.3,37.8 
				155.3,37.8 155.3,62.6 174.2,62.6 174.2,57.1 			"/>
			<path class="st1" d="M174.4,62.9h-19.4V37.6h7.5v19.3h11.8V62.9z M155.6,62.4h18.4v-5.1h-11.8V38.1h-6.5V62.4z"/>
		</g>
	</g>
</g>
</svg>
